<svg width="168" height="44" viewBox="0 0 168 44" fill="none" xmlns="http://www.w3.org/2000/svg">
<path d="M30.8355 33.2067C28.2531 35.5657 24.8603 36.9981 21.1432 36.9981C13.0552 36.9981 6.49856 30.2197 6.49856 21.8581C6.49856 13.4965 13.0552 6.71837 21.1432 6.71837C24.294 6.71837 27.2124 7.74743 29.6013 9.49758C31.2386 10.2411 33.0947 9.73139 34.0193 8.38479C34.7341 7.34363 34.8085 5.92388 34.2423 4.69961C32.8805 3.58757 30.5786 1.98598 27.3788 0.966001C25.4075 0.338227 23.3135 0 21.1432 0C9.46618 0 0 9.78638 0 21.8584C0 33.9304 9.46618 43.7167 21.1432 43.7167C26.6549 43.7167 31.6733 41.5358 35.4368 37.9638C36.4248 36.6927 36.5085 34.9645 35.7171 33.7959C34.7254 32.3315 32.4845 31.9318 30.8355 33.207V33.2067Z" fill="url(#paint0_linear_1491_6256)"/>
<path d="M25.6634 33.6041L35.7684 23.1574C36.1596 22.7529 36.1596 22.0972 35.7684 21.6926L23.9531 9.47778V32.872C23.9531 33.7948 25.0323 34.257 25.6634 33.6044V33.6041Z" fill="#F18200"/>
<path d="M39.9989 12.1555V30.4599C39.9989 31.3368 39.3115 32.0475 38.4633 32.0475H37.7358C37.5448 32.0475 37.3624 32.0112 37.1938 31.9456C36.6127 31.7199 36.1992 31.1391 36.1992 30.4597V12.1555C36.1992 11.4761 36.6127 10.8955 37.1938 10.6698C37.3624 10.6032 37.5448 10.5669 37.7358 10.5669H38.4633C39.3115 10.5669 39.9989 11.2786 39.9989 12.1555Z" fill="#F18200"/>
<g opacity="0.6">
<path d="M24.9223 33.935C24.7664 33.935 24.5352 33.8999 24.3195 33.7327C23.9609 33.4548 23.9246 33.0334 23.9209 32.9519L23.9614 9.45508L24.9882 10.5166L25.177 33.9042C25.1401 33.9141 25.0457 33.9352 24.9228 33.9352L24.9223 33.935Z" fill="white"/>
<path d="M23.9731 9.48656L24.9755 10.5228L25.164 33.8954C25.1228 33.9057 25.0345 33.9236 24.922 33.9236C24.7679 33.9236 24.5395 33.8891 24.3266 33.7239C23.9724 33.4492 23.9363 33.0331 23.9328 32.9537L23.9731 9.48656ZM23.9487 9.42578L23.9082 32.9537C23.9109 33.0132 23.938 33.4545 24.3117 33.744C24.5244 33.9087 24.7513 33.9488 24.9218 33.9488C25.0628 33.9488 25.165 33.9216 25.1884 33.9148L24.9996 10.5122L23.9487 9.42578Z" fill="white"/>
</g>
<path opacity="0.6" d="M37.1938 10.6709V31.947C36.6127 31.7213 36.1992 31.1405 36.1992 30.4611V12.1568C36.1992 11.4774 36.6127 10.8969 37.1938 10.6712V10.6709Z" fill="white"/>
<path d="M67.2975 25.9924C67.2975 26.1574 67.2693 26.3046 67.2128 26.4338C67.1563 26.5629 67.0787 26.6706 66.9798 26.7567C66.8881 26.8429 66.7751 26.9074 66.641 26.9505C66.5139 26.9864 66.3833 27.0043 66.2492 27.0043H65.0632C64.8161 27.0043 64.6008 26.9792 64.4173 26.929C64.2408 26.8787 64.0749 26.789 63.9196 26.6598C63.7714 26.5235 63.6266 26.344 63.4855 26.1216C63.3443 25.8919 63.1854 25.5976 63.009 25.2388L59.5993 18.7257C59.4016 18.3381 59.2004 17.9218 58.9957 17.4769C58.791 17.0247 58.6075 16.5869 58.4451 16.1635H58.4239C58.4521 16.6802 58.4733 17.197 58.4874 17.7137C58.5016 18.2233 58.5086 18.7508 58.5086 19.2962V26.5845C58.5086 26.6562 58.4874 26.7208 58.4451 26.7783C58.4098 26.8357 58.3427 26.8859 58.2439 26.929C58.1521 26.9649 58.0251 26.9936 57.8627 27.0151C57.7003 27.0366 57.4921 27.0474 57.2379 27.0474C56.9909 27.0474 56.7861 27.0366 56.6238 27.0151C56.4614 26.9936 56.3343 26.9649 56.2426 26.929C56.1508 26.8859 56.0873 26.8357 56.052 26.7783C56.0167 26.7208 55.999 26.6562 55.999 26.5845V14.0642C55.999 13.7269 56.0943 13.4757 56.2849 13.3106C56.4826 13.1384 56.7226 13.0522 57.005 13.0522H58.498C58.7663 13.0522 58.9922 13.0774 59.1757 13.1276C59.3593 13.1707 59.5216 13.246 59.6628 13.3537C59.8111 13.4613 59.9487 13.6121 60.0758 13.8058C60.2029 13.9924 60.3335 14.2257 60.4676 14.5056L63.136 19.5977C63.2913 19.9063 63.4431 20.2113 63.5913 20.5127C63.7467 20.807 63.8949 21.1048 64.0361 21.4063C64.1773 21.7005 64.3149 21.9912 64.4491 22.2783C64.5832 22.5654 64.7138 22.8524 64.8408 23.1395H64.8514C64.8303 22.6371 64.8126 22.1132 64.7985 21.5678C64.7914 21.0223 64.7879 20.502 64.7879 20.0068V13.4721C64.7879 13.4003 64.8091 13.3357 64.8514 13.2783C64.8938 13.2209 64.9644 13.1707 65.0632 13.1276C65.1621 13.0845 65.2926 13.0558 65.455 13.0415C65.6174 13.02 65.8256 13.0092 66.0798 13.0092C66.3198 13.0092 66.521 13.02 66.6833 13.0415C66.8457 13.0558 66.9692 13.0845 67.054 13.1276C67.1457 13.1707 67.2093 13.2209 67.2446 13.2783C67.2799 13.3357 67.2975 13.4003 67.2975 13.4721V25.9924Z" fill="white"/>
<path d="M78.8607 21.5355C78.8607 21.8656 78.7866 22.1096 78.6383 22.2675C78.4971 22.4254 78.2995 22.5044 78.0454 22.5044H72.2955C72.2955 22.9134 72.3414 23.2866 72.4332 23.624C72.532 23.9541 72.6838 24.2376 72.8885 24.4744C73.1003 24.7041 73.3685 24.8799 73.6933 25.002C74.0251 25.124 74.4204 25.185 74.8792 25.185C75.3452 25.185 75.7546 25.1527 76.1076 25.0881C76.4605 25.0163 76.7641 24.9409 77.0182 24.862C77.2794 24.7759 77.4947 24.7005 77.6641 24.6359C77.8336 24.5642 77.9712 24.5283 78.0771 24.5283C78.1407 24.5283 78.1936 24.5426 78.236 24.5713C78.2783 24.5929 78.3136 24.6359 78.3418 24.7005C78.3701 24.7651 78.3877 24.8584 78.3948 24.9804C78.4089 25.0953 78.416 25.2424 78.416 25.4218C78.416 25.5797 78.4124 25.7161 78.4054 25.8309C78.3983 25.9385 78.3877 26.0318 78.3736 26.1108C78.3595 26.1897 78.3383 26.2579 78.3101 26.3153C78.2818 26.3656 78.243 26.4158 78.1936 26.4661C78.1512 26.5163 78.0277 26.5845 77.823 26.6706C77.6183 26.7567 77.3571 26.8429 77.0394 26.929C76.7217 27.0079 76.3582 27.0761 75.9487 27.1335C75.5393 27.1981 75.1016 27.2304 74.6357 27.2304C73.7956 27.2304 73.0579 27.1228 72.4226 26.9074C71.7943 26.6921 71.2684 26.3656 70.8448 25.9278C70.4213 25.49 70.1036 24.9374 69.8918 24.2699C69.6871 23.6024 69.5847 22.8201 69.5847 21.923C69.5847 21.069 69.6941 20.301 69.913 19.6192C70.1318 18.9302 70.4495 18.3489 70.866 17.8752C71.2825 17.3943 71.7872 17.0283 72.3802 16.7771C72.9803 16.5259 73.6544 16.4003 74.4027 16.4003C75.1934 16.4003 75.8675 16.5187 76.4252 16.7556C76.99 16.9924 77.4524 17.3226 77.8124 17.746C78.1724 18.1623 78.4371 18.6575 78.6066 19.2316C78.776 19.8058 78.8607 20.4302 78.8607 21.1048V21.5355ZM76.277 20.7603C76.2982 19.9996 76.1464 19.4039 75.8217 18.9733C75.504 18.5355 75.0098 18.3166 74.3392 18.3166C74.0003 18.3166 73.7039 18.3812 73.4497 18.5104C73.2026 18.6395 72.9944 18.8154 72.825 19.0379C72.6626 19.2532 72.5355 19.5115 72.4438 19.813C72.3591 20.1072 72.3096 20.423 72.2955 20.7603H76.277Z" fill="white"/>
<path d="M88.9309 26.423C88.9873 26.545 89.012 26.6455 89.005 26.7244C89.005 26.8034 88.9556 26.868 88.8567 26.9182C88.7579 26.9684 88.6061 27.0007 88.4014 27.0151C88.1967 27.0366 87.9249 27.0474 87.5861 27.0474C87.2684 27.0474 87.0107 27.0402 86.8131 27.0259C86.6225 27.0187 86.4707 27.0007 86.3577 26.972C86.2518 26.9362 86.1707 26.8967 86.1142 26.8536C86.0648 26.8034 86.0259 26.7424 85.9977 26.6706L84.2505 23.2579L82.5033 26.6706C82.4751 26.7424 82.4363 26.8034 82.3868 26.8536C82.3374 26.8967 82.2598 26.9362 82.1539 26.972C82.0551 27.0007 81.9139 27.0187 81.7303 27.0259C81.5468 27.0402 81.3068 27.0474 81.0103 27.0474C80.6997 27.0474 80.4526 27.0366 80.269 27.0151C80.0855 27.0007 79.9514 26.9684 79.8667 26.9182C79.7819 26.868 79.7361 26.8034 79.729 26.7244C79.729 26.6455 79.7608 26.545 79.8243 26.423L82.4398 21.6969L80.0255 17.2616C79.962 17.1324 79.9267 17.0247 79.9196 16.9386C79.9196 16.8453 79.9655 16.7735 80.0573 16.7233C80.149 16.673 80.2938 16.6372 80.4914 16.6156C80.6961 16.5941 80.9714 16.5833 81.3174 16.5833C81.628 16.5833 81.875 16.5905 82.0586 16.6049C82.2492 16.612 82.3974 16.6264 82.5033 16.6479C82.6092 16.6695 82.6869 16.7053 82.7363 16.7556C82.7857 16.7986 82.8281 16.8561 82.8634 16.9278L84.547 20.1359L86.2201 16.9278C86.2412 16.8704 86.273 16.8202 86.3154 16.7771C86.3577 16.734 86.4248 16.6982 86.5166 16.6695C86.6083 16.6407 86.7319 16.6192 86.8872 16.6049C87.0495 16.5905 87.2684 16.5833 87.5437 16.5833C87.8543 16.5833 88.1014 16.5905 88.2849 16.6049C88.4755 16.6192 88.6097 16.6515 88.6873 16.7018C88.772 16.752 88.8108 16.8238 88.8038 16.9171C88.8038 17.0032 88.765 17.118 88.6873 17.2616L86.3365 21.6216L88.9309 26.423Z" fill="white"/>
<path d="M96.2902 25.6694C96.2902 25.9852 96.269 26.2292 96.2267 26.4015C96.1914 26.5665 96.142 26.685 96.0784 26.7567C96.0149 26.8213 95.9196 26.8823 95.7925 26.9397C95.6725 26.99 95.5278 27.033 95.3584 27.0689C95.196 27.112 95.016 27.1443 94.8183 27.1658C94.6277 27.1873 94.4336 27.1981 94.236 27.1981C93.7065 27.1981 93.2476 27.1299 92.8594 26.9936C92.4711 26.8572 92.1499 26.6491 91.8958 26.3692C91.6416 26.0821 91.4546 25.7232 91.3346 25.2926C91.2146 24.862 91.1545 24.3524 91.1545 23.7639V18.8441H90.0215C89.8874 18.8441 89.785 18.7615 89.7144 18.5965C89.6439 18.4242 89.6086 18.1407 89.6086 17.746C89.6086 17.5379 89.6156 17.362 89.6297 17.2185C89.6509 17.075 89.6791 16.9637 89.7144 16.8848C89.7497 16.7986 89.7921 16.7376 89.8415 16.7018C89.898 16.6659 89.9615 16.6479 90.0321 16.6479H91.1545V14.5056C91.1545 14.4338 91.1722 14.3692 91.2075 14.3118C91.2499 14.2544 91.3204 14.2077 91.4193 14.1719C91.5252 14.1288 91.6628 14.1001 91.8322 14.0857C92.0087 14.0642 92.224 14.0534 92.4782 14.0534C92.7394 14.0534 92.9547 14.0642 93.1241 14.0857C93.3006 14.1001 93.4382 14.1288 93.5371 14.1719C93.6359 14.2077 93.7065 14.2544 93.7489 14.3118C93.7912 14.3692 93.8124 14.4338 93.8124 14.5056V16.6479H95.8667C95.9373 16.6479 95.9973 16.6659 96.0467 16.7018C96.1031 16.7376 96.149 16.7986 96.1843 16.8848C96.2196 16.9637 96.2443 17.075 96.2585 17.2185C96.2796 17.362 96.2902 17.5379 96.2902 17.746C96.2902 18.1407 96.2549 18.4242 96.1843 18.5965C96.1137 18.7615 96.0114 18.8441 95.8773 18.8441H93.8124V23.3548C93.8124 23.8788 93.8936 24.2735 94.0559 24.539C94.2183 24.7974 94.5077 24.9266 94.9242 24.9266C95.0654 24.9266 95.1925 24.9158 95.3054 24.8943C95.4184 24.8656 95.5172 24.8369 95.6019 24.8082C95.6937 24.7723 95.7678 24.7436 95.8243 24.722C95.8878 24.6933 95.9443 24.679 95.9937 24.679C96.0361 24.679 96.0749 24.6933 96.1102 24.722C96.1526 24.7436 96.1843 24.7938 96.2055 24.8728C96.2267 24.9445 96.2443 25.045 96.2585 25.1742C96.2796 25.3034 96.2902 25.4685 96.2902 25.6694Z" fill="white"/>
<path d="M107.853 24.8728C107.853 25.0522 107.846 25.2065 107.832 25.3357C107.825 25.4577 107.811 25.5653 107.79 25.6586C107.769 25.7448 107.74 25.8201 107.705 25.8847C107.67 25.9493 107.613 26.0247 107.536 26.1108C107.458 26.1897 107.306 26.2938 107.08 26.423C106.862 26.5522 106.59 26.6778 106.265 26.7998C105.947 26.9146 105.58 27.0115 105.164 27.0905C104.754 27.1694 104.31 27.2089 103.83 27.2089C102.891 27.2089 102.044 27.0617 101.288 26.7675C100.533 26.4732 99.8905 26.0354 99.361 25.4541C98.8316 24.8656 98.4257 24.1335 98.1433 23.2579C97.8609 22.3823 97.7197 21.3632 97.7197 20.2005C97.7197 19.0163 97.875 17.9649 98.1857 17.0462C98.4963 16.1276 98.9304 15.3561 99.4881 14.7317C100.046 14.1073 100.713 13.6336 101.489 13.3106C102.273 12.9877 103.134 12.8262 104.073 12.8262C104.454 12.8262 104.821 12.8585 105.174 12.9231C105.527 12.9877 105.852 13.0738 106.149 13.1814C106.452 13.2819 106.724 13.4003 106.964 13.5367C107.204 13.6731 107.37 13.7915 107.462 13.892C107.56 13.9853 107.628 14.0642 107.663 14.1288C107.698 14.1934 107.726 14.2759 107.748 14.3764C107.769 14.4769 107.783 14.5953 107.79 14.7317C107.804 14.868 107.811 15.0367 107.811 15.2376C107.811 15.453 107.804 15.636 107.79 15.7867C107.776 15.9374 107.751 16.0594 107.716 16.1527C107.68 16.246 107.638 16.3142 107.589 16.3573C107.539 16.4003 107.483 16.4218 107.419 16.4218C107.313 16.4218 107.179 16.3608 107.017 16.2388C106.855 16.1096 106.643 15.9697 106.382 15.819C106.127 15.6611 105.82 15.5211 105.46 15.3991C105.107 15.2699 104.684 15.2053 104.19 15.2053C103.646 15.2053 103.159 15.3202 102.728 15.5498C102.305 15.7723 101.941 16.0953 101.638 16.5187C101.341 16.935 101.115 17.441 100.96 18.0367C100.805 18.6324 100.727 19.3034 100.727 20.0498C100.727 20.868 100.808 21.5785 100.971 22.1814C101.14 22.7771 101.376 23.2687 101.68 23.6563C101.991 24.0438 102.361 24.3345 102.792 24.5283C103.23 24.7149 103.72 24.8082 104.264 24.8082C104.758 24.8082 105.185 24.7508 105.545 24.6359C105.905 24.5139 106.212 24.3811 106.466 24.2376C106.727 24.0941 106.939 23.9649 107.102 23.85C107.271 23.7352 107.402 23.6778 107.493 23.6778C107.564 23.6778 107.62 23.6921 107.663 23.7209C107.705 23.7496 107.74 23.807 107.769 23.8931C107.797 23.9792 107.818 24.1012 107.832 24.2591C107.846 24.4098 107.853 24.6144 107.853 24.8728Z" fill="white"/>
<path d="M117.744 26.6491C117.744 26.7495 117.708 26.8285 117.638 26.8859C117.567 26.9433 117.454 26.9828 117.299 27.0043C117.151 27.033 116.928 27.0474 116.632 27.0474C116.314 27.0474 116.081 27.033 115.933 27.0043C115.792 26.9828 115.689 26.9433 115.626 26.8859C115.569 26.8285 115.541 26.7495 115.541 26.6491V25.8847C115.153 26.3082 114.708 26.6383 114.207 26.8751C113.713 27.112 113.162 27.2304 112.555 27.2304C112.054 27.2304 111.591 27.1622 111.168 27.0259C110.751 26.8967 110.388 26.7029 110.077 26.4445C109.774 26.179 109.537 25.8524 109.368 25.4649C109.198 25.0773 109.114 24.6252 109.114 24.1084C109.114 23.5486 109.219 23.0642 109.431 22.6551C109.65 22.2388 109.971 21.8979 110.395 21.6323C110.825 21.3596 111.358 21.1587 111.994 21.0295C112.629 20.9003 113.367 20.8357 114.207 20.8357H115.128V20.2544C115.128 19.9529 115.096 19.691 115.033 19.4685C114.976 19.2388 114.877 19.0486 114.736 18.8979C114.602 18.7472 114.419 18.636 114.186 18.5642C113.96 18.4924 113.677 18.4565 113.339 18.4565C112.894 18.4565 112.495 18.5068 112.142 18.6072C111.796 18.7077 111.489 18.819 111.221 18.941C110.952 19.063 110.727 19.1742 110.543 19.2747C110.367 19.3752 110.222 19.4254 110.109 19.4254C110.031 19.4254 109.961 19.4003 109.897 19.3501C109.841 19.2998 109.791 19.2281 109.749 19.1348C109.714 19.0415 109.685 18.9266 109.664 18.7903C109.643 18.6539 109.632 18.5032 109.632 18.3381C109.632 18.1156 109.65 17.9398 109.685 17.8106C109.721 17.6814 109.788 17.5666 109.887 17.4661C109.985 17.3584 110.158 17.2436 110.405 17.1216C110.652 16.9924 110.942 16.874 111.274 16.7663C111.605 16.6587 111.965 16.5726 112.354 16.508C112.749 16.4362 113.155 16.4003 113.571 16.4003C114.313 16.4003 114.945 16.4757 115.467 16.6264C115.996 16.7699 116.431 16.996 116.769 17.3046C117.108 17.6061 117.355 17.9972 117.511 18.4781C117.666 18.9589 117.744 19.5295 117.744 20.1898V26.6491ZM115.128 22.5367H114.112C113.681 22.5367 113.314 22.5689 113.01 22.6335C112.707 22.6981 112.46 22.795 112.269 22.9242C112.078 23.0534 111.937 23.2113 111.845 23.3979C111.761 23.5773 111.718 23.7854 111.718 24.0223C111.718 24.4242 111.842 24.74 112.089 24.9697C112.343 25.1993 112.693 25.3141 113.137 25.3141C113.511 25.3141 113.854 25.2173 114.164 25.0235C114.482 24.8297 114.803 24.5462 115.128 24.173V22.5367Z" fill="white"/>
<path d="M135.438 26.6168C135.438 26.6885 135.417 26.7531 135.374 26.8106C135.332 26.8608 135.261 26.9039 135.162 26.9397C135.064 26.9756 134.93 27.0007 134.76 27.0151C134.591 27.0366 134.375 27.0474 134.114 27.0474C133.846 27.0474 133.627 27.0366 133.458 27.0151C133.288 27.0007 133.151 26.9756 133.045 26.9397C132.946 26.9039 132.875 26.8608 132.833 26.8106C132.798 26.7531 132.78 26.6885 132.78 26.6168V20.9218C132.78 20.5989 132.748 20.3046 132.685 20.0391C132.628 19.7735 132.536 19.5474 132.409 19.3608C132.289 19.1671 132.134 19.0199 131.943 18.9194C131.76 18.8118 131.538 18.758 131.276 18.758C130.959 18.758 130.637 18.8836 130.313 19.1348C129.988 19.3859 129.635 19.752 129.254 20.2328V26.6168C129.254 26.6885 129.233 26.7531 129.19 26.8106C129.148 26.8608 129.074 26.9039 128.968 26.9397C128.869 26.9756 128.735 27.0007 128.566 27.0151C128.396 27.0366 128.184 27.0474 127.93 27.0474C127.669 27.0474 127.454 27.0366 127.284 27.0151C127.115 27.0007 126.977 26.9756 126.871 26.9397C126.772 26.9039 126.702 26.8608 126.66 26.8106C126.617 26.7531 126.596 26.6885 126.596 26.6168V20.9218C126.596 20.5989 126.564 20.3046 126.501 20.0391C126.444 19.7735 126.356 19.5474 126.236 19.3608C126.116 19.1671 125.961 19.0199 125.77 18.9194C125.579 18.8118 125.357 18.758 125.103 18.758C124.778 18.758 124.453 18.8836 124.129 19.1348C123.804 19.3859 123.455 19.752 123.08 20.2328V26.6168C123.08 26.6885 123.059 26.7531 123.017 26.8106C122.975 26.8608 122.9 26.9039 122.795 26.9397C122.696 26.9756 122.562 27.0007 122.392 27.0151C122.223 27.0366 122.007 27.0474 121.746 27.0474C121.485 27.0474 121.27 27.0366 121.1 27.0151C120.931 27.0007 120.793 26.9756 120.687 26.9397C120.588 26.9039 120.518 26.8608 120.476 26.8106C120.433 26.7531 120.412 26.6885 120.412 26.6168V17.014C120.412 16.9422 120.43 16.8812 120.465 16.8309C120.5 16.7735 120.564 16.7269 120.656 16.691C120.747 16.6551 120.864 16.63 121.005 16.6156C121.153 16.5941 121.337 16.5833 121.556 16.5833C121.782 16.5833 121.969 16.5941 122.117 16.6156C122.265 16.63 122.378 16.6551 122.456 16.691C122.54 16.7269 122.6 16.7735 122.636 16.8309C122.671 16.8812 122.689 16.9422 122.689 17.014V18.1228C123.211 17.5486 123.73 17.118 124.245 16.8309C124.768 16.5439 125.311 16.4003 125.876 16.4003C126.264 16.4003 126.614 16.4434 126.924 16.5295C127.235 16.6085 127.51 16.7269 127.75 16.8848C127.997 17.0355 128.209 17.2185 128.386 17.4338C128.562 17.6491 128.71 17.8895 128.83 18.1551C129.113 17.8465 129.388 17.5809 129.656 17.3584C129.932 17.136 130.2 16.9565 130.461 16.8202C130.729 16.6766 130.994 16.5726 131.255 16.508C131.523 16.4362 131.795 16.4003 132.071 16.4003C132.699 16.4003 133.228 16.508 133.659 16.7233C134.089 16.9386 134.435 17.2328 134.697 17.6061C134.965 17.9721 135.155 18.4027 135.268 18.8979C135.381 19.3931 135.438 19.917 135.438 20.4697V26.6168Z" fill="white"/>
<path d="M147.562 21.6754C147.562 22.5295 147.47 23.301 147.287 23.99C147.11 24.6718 146.849 25.2531 146.503 25.734C146.157 26.2149 145.727 26.5845 145.211 26.8429C144.696 27.1012 144.107 27.2304 143.443 27.2304C143.168 27.2304 142.914 27.2017 142.681 27.1443C142.455 27.094 142.232 27.0151 142.014 26.9074C141.802 26.7926 141.59 26.6527 141.378 26.4876C141.166 26.3225 140.948 26.1287 140.722 25.9063V30.4278C140.722 30.4995 140.701 30.5641 140.658 30.6215C140.616 30.679 140.542 30.7256 140.436 30.7615C140.337 30.8046 140.203 30.8369 140.033 30.8584C139.864 30.8799 139.649 30.8907 139.388 30.8907C139.126 30.8907 138.911 30.8799 138.742 30.8584C138.572 30.8369 138.434 30.8046 138.329 30.7615C138.23 30.7256 138.159 30.679 138.117 30.6215C138.074 30.5641 138.053 30.4995 138.053 30.4278V17.014C138.053 16.9422 138.071 16.8812 138.106 16.8309C138.142 16.7735 138.202 16.7269 138.286 16.691C138.378 16.6551 138.494 16.63 138.636 16.6156C138.784 16.5941 138.967 16.5833 139.186 16.5833C139.398 16.5833 139.575 16.5941 139.716 16.6156C139.864 16.63 139.98 16.6551 140.065 16.691C140.157 16.7269 140.221 16.7735 140.256 16.8309C140.291 16.8812 140.309 16.9422 140.309 17.014V18.1443C140.584 17.8572 140.852 17.6061 141.114 17.3907C141.382 17.1683 141.654 16.9852 141.929 16.8417C142.204 16.691 142.487 16.5797 142.776 16.508C143.072 16.4362 143.387 16.4003 143.718 16.4003C144.41 16.4003 145 16.5403 145.487 16.8202C145.974 17.0929 146.369 17.4697 146.673 17.9505C146.983 18.4314 147.209 18.9912 147.35 19.63C147.492 20.2687 147.562 20.9505 147.562 21.6754ZM144.788 21.8692C144.788 21.4601 144.756 21.069 144.693 20.6958C144.636 20.3154 144.534 19.9781 144.386 19.6838C144.244 19.3895 144.054 19.1563 143.814 18.984C143.581 18.8046 143.288 18.7149 142.935 18.7149C142.758 18.7149 142.582 18.7436 142.405 18.801C142.236 18.8513 142.059 18.9374 141.876 19.0594C141.699 19.1814 141.516 19.3393 141.325 19.5331C141.135 19.7269 140.934 19.9673 140.722 20.2544V23.4194C141.096 23.9003 141.452 24.2735 141.791 24.539C142.13 24.7974 142.483 24.9266 142.85 24.9266C143.196 24.9266 143.489 24.8369 143.729 24.6575C143.976 24.478 144.177 24.2448 144.333 23.9577C144.488 23.6634 144.601 23.3333 144.671 22.9673C144.749 22.6012 144.788 22.2352 144.788 21.8692Z" fill="white"/>
<path d="M158.66 26.6168C158.66 26.6885 158.642 26.7531 158.607 26.8106C158.571 26.8608 158.508 26.9039 158.416 26.9397C158.331 26.9756 158.215 27.0007 158.067 27.0151C157.925 27.0366 157.745 27.0474 157.526 27.0474C157.294 27.0474 157.103 27.0366 156.955 27.0151C156.813 27.0007 156.701 26.9756 156.616 26.9397C156.531 26.9039 156.471 26.8608 156.436 26.8106C156.401 26.7531 156.383 26.6885 156.383 26.6168V25.5079C155.86 26.0821 155.328 26.5127 154.784 26.7998C154.247 27.0869 153.69 27.2304 153.111 27.2304C152.461 27.2304 151.914 27.1228 151.47 26.9074C151.032 26.6921 150.675 26.3979 150.4 26.0247C150.132 25.6515 149.938 25.2208 149.818 24.7328C149.705 24.2376 149.648 23.624 149.648 22.8919V17.014C149.648 16.9422 149.666 16.8812 149.701 16.8309C149.744 16.7735 149.814 16.7269 149.913 16.691C150.019 16.6551 150.157 16.63 150.326 16.6156C150.502 16.5941 150.718 16.5833 150.972 16.5833C151.233 16.5833 151.448 16.5941 151.618 16.6156C151.787 16.63 151.921 16.6551 152.02 16.691C152.126 16.7269 152.2 16.7735 152.243 16.8309C152.285 16.8812 152.306 16.9422 152.306 17.014V22.4398C152.306 22.9422 152.338 23.3261 152.401 23.5917C152.465 23.8572 152.56 24.0869 152.687 24.2807C152.821 24.4673 152.987 24.6144 153.185 24.722C153.39 24.8225 153.626 24.8728 153.894 24.8728C154.233 24.8728 154.572 24.7472 154.911 24.496C155.257 24.2448 155.624 23.8788 156.012 23.3979V17.014C156.012 16.9422 156.03 16.8812 156.065 16.8309C156.108 16.7735 156.178 16.7269 156.277 16.691C156.383 16.6551 156.521 16.63 156.69 16.6156C156.859 16.5941 157.075 16.5833 157.336 16.5833C157.597 16.5833 157.812 16.5941 157.982 16.6156C158.151 16.63 158.285 16.6551 158.384 16.691C158.483 16.7269 158.554 16.7735 158.596 16.8309C158.638 16.8812 158.66 16.9422 158.66 17.014V26.6168Z" fill="white"/>
<path d="M167.999 23.9039C167.999 24.4493 167.897 24.9302 167.692 25.3464C167.494 25.7627 167.212 26.1108 166.845 26.3907C166.478 26.6706 166.044 26.8787 165.542 27.0151C165.041 27.1586 164.498 27.2304 163.912 27.2304C163.559 27.2304 163.22 27.2017 162.895 27.1443C162.577 27.094 162.292 27.0295 162.037 26.9505C161.783 26.8644 161.571 26.7783 161.402 26.6921C161.233 26.606 161.109 26.5271 161.031 26.4553C160.954 26.3763 160.894 26.2579 160.851 26.1C160.809 25.935 160.788 25.6945 160.788 25.3787C160.788 25.1706 160.795 25.0055 160.809 24.8835C160.823 24.7543 160.844 24.6539 160.873 24.5821C160.901 24.5031 160.936 24.4529 160.979 24.4314C161.021 24.4027 161.074 24.3883 161.137 24.3883C161.215 24.3883 161.328 24.435 161.476 24.5283C161.632 24.6144 161.822 24.7113 162.048 24.8189C162.274 24.9266 162.535 25.0271 162.832 25.1204C163.135 25.2137 163.478 25.2603 163.859 25.2603C164.099 25.2603 164.311 25.2352 164.494 25.185C164.685 25.1347 164.847 25.063 164.981 24.9697C165.122 24.8764 165.228 24.7579 165.299 24.6144C165.369 24.4709 165.405 24.3058 165.405 24.1192C165.405 23.9039 165.338 23.7209 165.204 23.5701C165.076 23.4122 164.904 23.2759 164.685 23.1611C164.473 23.0462 164.229 22.9386 163.954 22.8381C163.686 22.7376 163.407 22.6264 163.117 22.5044C162.835 22.3823 162.556 22.2424 162.281 22.0845C162.013 21.9266 161.769 21.7328 161.55 21.5032C161.339 21.2735 161.166 20.9972 161.031 20.6742C160.904 20.3513 160.841 19.9637 160.841 19.5115C160.841 19.0522 160.929 18.6324 161.106 18.252C161.282 17.8644 161.536 17.5343 161.868 17.2616C162.2 16.9888 162.602 16.7771 163.075 16.6264C163.555 16.4757 164.092 16.4003 164.685 16.4003C164.981 16.4003 165.267 16.4218 165.542 16.4649C165.825 16.508 166.079 16.5618 166.305 16.6264C166.531 16.691 166.721 16.7628 166.877 16.8417C167.032 16.9135 167.141 16.9781 167.205 17.0355C167.275 17.0857 167.325 17.1395 167.353 17.197C167.381 17.2472 167.403 17.3118 167.417 17.3907C167.431 17.4625 167.441 17.5558 167.448 17.6706C167.463 17.7783 167.47 17.9147 167.47 18.0797C167.47 18.2735 167.463 18.4314 167.448 18.5534C167.441 18.6754 167.424 18.7723 167.395 18.8441C167.374 18.9159 167.343 18.9661 167.3 18.9948C167.258 19.0163 167.208 19.0271 167.152 19.0271C167.088 19.0271 166.99 18.9912 166.855 18.9194C166.721 18.8405 166.552 18.758 166.347 18.6718C166.149 18.5857 165.917 18.5068 165.648 18.435C165.387 18.356 165.087 18.3166 164.748 18.3166C164.508 18.3166 164.3 18.3417 164.123 18.3919C163.947 18.4422 163.802 18.5139 163.689 18.6072C163.576 18.7005 163.492 18.8118 163.435 18.941C163.379 19.063 163.35 19.1958 163.35 19.3393C163.35 19.5618 163.418 19.7484 163.552 19.8991C163.686 20.0498 163.862 20.1826 164.081 20.2974C164.3 20.4123 164.547 20.5199 164.822 20.6204C165.105 20.7209 165.387 20.8321 165.669 20.9541C165.959 21.069 166.241 21.2053 166.517 21.3632C166.799 21.5211 167.05 21.7149 167.268 21.9445C167.487 22.1742 167.664 22.4505 167.798 22.7735C167.932 23.0893 167.999 23.4661 167.999 23.9039Z" fill="white"/>
<defs>
<linearGradient id="paint0_linear_1491_6256" x1="36.1829" y1="21.9522" x2="1.81864e-07" y2="21.9522" gradientUnits="userSpaceOnUse">
<stop stop-color="#0183CD"/>
<stop offset="1" stop-color="#0083CD"/>
</linearGradient>
</defs>
</svg>
